name C:\Users\Nicos\Documents\OpenSimProjects\SprintingProject\Study1\PredictiveResults\IC_pred_Sprinting_optimum_26-October-2023__22-16-26___HTD_Plus_4_p02_maxVel_01.mot
datacolumns 38
datarows 10
range 0.21337242 0.22321757
endheader
                time	/jointset/ground_pelvis/pelvis_tilt/value	/jointset/ground_pelvis/pelvis_list/value	/jointset/ground_pelvis/pelvis_rotation/value	/jointset/ground_pelvis/pelvis_tx/value	/jointset/ground_pelvis/pelvis_ty/value	/jointset/ground_pelvis/pelvis_tz/value	/jointset/hip_r/hip_flexion_r/value	/jointset/hip_r/hip_adduction_r/value	/jointset/hip_r/hip_rotation_r/value	/jointset/knee_r/knee_angle_r/value	/jointset/ankle_r/ankle_angle_r/value	/jointset/subtalar_r/subtalar_angle_r/value	/jointset/mtp_r/mtp_angle_r/value	/jointset/hip_l/hip_flexion_l/value	/jointset/hip_l/hip_adduction_l/value	/jointset/hip_l/hip_rotation_l/value	/jointset/knee_l/knee_angle_l/value	/jointset/ankle_l/ankle_angle_l/value	/jointset/subtalar_l/subtalar_angle_l/value	/jointset/mtp_l/mtp_angle_l/value	/jointset/back/lumbar_extension/value	/jointset/back/lumbar_bending/value	/jointset/back/lumbar_rotation/value	/jointset/acromial_r/arm_flex_r/value	/jointset/acromial_r/arm_add_r/value	/jointset/acromial_r/arm_rot_r/value	/jointset/elbow_r/elbow_flex_r/value	/jointset/radioulnar_r/pro_sup_r/value	/jointset/radius_hand_r/wrist_flex_r/value	/jointset/radius_hand_r/wrist_dev_r/value	/jointset/acromial_l/arm_flex_l/value	/jointset/acromial_l/arm_add_l/value	/jointset/acromial_l/arm_rot_l/value	/jointset/elbow_l/elbow_flex_l/value	/jointset/radioulnar_l/pro_sup_l/value	/jointset/radius_hand_l/wrist_flex_l/value	/jointset/radius_hand_l/wrist_dev_l/value	
          0.21337242	         -3.15522405	          6.22518856	        -14.46959268	          1.85879698	          0.98877975	          0.31612770	         -5.44742809	        -14.45259102	         10.19822609	        -83.98360174	        -25.03591386	        -13.05761395	        -10.47183347	         62.95361480	         -9.31019151	         -7.20555435	        -52.74284809	        -25.31135413	        -18.50151095	         10.32198073	        -19.86706614	        -10.62775611	         10.74517213	         55.14483137	        -14.43542666	         -1.94784720	        117.79911554	         86.38376244	         -9.91383236	          6.39535695	        -63.08525960	        -14.23262187	        -14.80955987	         67.58412555	         75.28946315	        -30.07498200	          5.93428896	
          0.21485669	         -3.00148818	          6.29348216	        -14.23663071	          1.87611126	          0.98972990	          0.31605808	         -5.23903030	        -14.43466997	         10.10461141	        -84.99729398	        -24.70707731	        -13.10788529	        -10.47370439	         62.06514608	         -8.86209630	         -7.12832166	        -51.41049688	        -25.82211925	        -18.38820294	          9.14979349	        -20.12193841	        -10.82840213	         10.67975110	         53.45458036	        -15.09620035	         -2.52358104	        116.82054844	         86.31618475	        -10.07786556	          6.34962572	        -62.47476027	        -14.70085866	        -14.86106972	         68.32921038	         75.27733604	        -29.96231826	          5.88959584	
          0.21485669	         -3.00148818	          6.29348216	        -14.23663071	          1.87611126	          0.98972990	          0.31605808	         -5.23903030	        -14.43466997	         10.10461141	        -84.99729398	        -24.70707731	        -13.10788529	        -10.47370439	         62.06514608	         -8.86209630	         -7.12832166	        -51.41049688	        -25.82211925	        -18.38820294	          9.14979349	        -20.12193841	        -10.82840213	         10.67975110	         53.45458036	        -15.09620035	         -2.52358104	        116.82054844	         86.31618475	        -10.07786556	          6.34962572	        -62.47476027	        -14.70085866	        -14.86106972	         68.32921038	         75.27733604	        -29.96231826	          5.88959584	
          0.21550487	         -2.94293156	          6.32091402	        -14.12772207	          1.88368147	          0.99013019	          0.31601802	         -5.13731632	        -14.42069620	         10.05840020	        -85.44021043	        -24.55943605	        -13.13366640	        -10.47339150	         61.68526800	         -8.66157401	         -7.07970422	        -50.83754672	        -26.03859263	        -18.34552500	          8.61847094	        -20.22422448	        -10.90907702	         10.65116690	         52.70072700	        -15.38386707	         -2.79982698	        116.38030258	         86.27913941	        -10.15256760	          6.32966372	        -62.20271877	        -14.91334111	        -14.88066894	         68.67296347	         75.27515019	        -29.91132508	          5.86962046	
          0.21755286	         -2.78830618	          6.39742815	        -13.75558139	          1.90763579	          0.99133986	          0.31584917	         -4.77741526	        -14.35471386	          9.88986925	        -86.83957173	        -24.07566740	        -13.23404303	        -10.47314105	         60.51182549	         -8.01041229	         -6.86853512	        -49.06026765	        -26.69830094	        -18.24725028	          6.93950842	        -20.51605646	        -11.13604377	         10.56078477	         50.26570407	        -16.29436473	         -3.75043414	        114.93797828	         86.13195124	        -10.40090014	          6.26646720	        -61.31798619	        -15.60988934	        -14.94071906	         69.83131570	         75.27670394	        -29.74315837	          5.80647581	
          0.21903713	         -2.70151320	          6.44382882	        -13.46111182	          1.92502944	          0.99216771	          0.31568576	         -4.48307218	        -14.28973076	          9.74697261	        -87.85300133	        -23.70929898	        -13.32452856	        -10.47355569	         59.68154569	         -7.52398530	         -6.66508674	        -47.80159097	        -27.15130046	        -18.21383774	          5.72264848	        -20.70154514	        -11.27506488	         10.49473680	         48.45938449	        -16.95548002	         -4.49279044	        113.84334601	         85.99700188	        -10.59181606	          6.22084256	        -60.64695466	        -16.13626463	        -14.97625518	         70.72717419	         75.28458290	        -29.61450917	          5.76074845	
          0.21903713	         -2.70151320	          6.44382882	        -13.46111182	          1.92502944	          0.99216771	          0.31568576	         -4.48307218	        -14.28973076	          9.74697261	        -87.85300133	        -23.70929898	        -13.32452856	        -10.47355569	         59.68154569	         -7.52398530	         -6.66508674	        -47.80159097	        -27.15130046	        -18.21383774	          5.72264848	        -20.70154514	        -11.27506488	         10.49473680	         48.45938449	        -16.95548002	         -4.49279044	        113.84334601	         85.99700188	        -10.59181606	          6.22084256	        -60.64695466	        -16.13626463	        -14.97625518	         70.72717419	         75.28458290	        -29.61450917	          5.76074845	
          0.21968531	         -2.66940777	          6.46186098	        -13.32649643	          1.93263369	          0.99251716	          0.31560343	         -4.34640616	        -14.25772272	          9.67932371	        -88.29521058	        -23.54536198	        -13.36855820	        -10.47388530	         59.32299420	         -7.30834903	         -6.56408824	        -47.25921884	        -27.34198783	        -18.20985167	          5.19124187	        -20.77658162	        -11.32931663	         10.46563755	         47.66191672	        -17.24431369	         -4.82582301	        113.35217642	         85.92973008	        -10.67801836	          6.20086681	        -60.34439180	        -16.37147028	        -14.98715166	         71.12961168	         75.28953518	        -29.55652726	          5.74078945	
          0.22173330	         -2.58728043	          6.51089393	        -12.87985276	          1.95669212	          0.99357536	          0.31530132	         -3.88503793	        -14.14583925	          9.44651742	        -89.69070196	        -23.01293042	        -13.52284678	        -10.47355329	         58.20157393	         -6.61743627	         -6.20224833	        -45.57542059	        -27.91107765	        -18.23850104	          3.51219826	        -20.99341588	        -11.47694852	         10.37232947	         45.11650673	        -18.15304783	         -5.89603175	        111.74694364	         85.67879107	        -10.96256974	          6.13772423	        -59.34783833	        -17.13258475	        -14.99998263	         72.44400323	         75.31334726	        -29.36604000	          5.67767127	
          0.22321757	         -2.54394593	          6.53973399	        -12.53824572	          1.97415679	          0.99429865	          0.31504497	         -3.52367689	        -14.05712672	          9.26186810	        -90.70060718	        -22.61452508	        -13.64523503	        -10.47324013	         57.39735071	         -6.11060964	         -5.90470001	        -44.38452884	        -28.28886919	        -18.29516436	          2.29533734	        -21.13305318	        -11.56321717	         10.30294287	         43.25493490	        -18.80476697	         -6.67338545	        110.53296919	         85.46163959	        -11.17961022	          6.09198034	        -58.58576348	        -17.69287170	        -14.99978277	         73.43838228	         75.33853167	        -29.22104982	          5.63196051	
